<svg xmlns="http://www.w3.org/2000/svg" viewBox="0 0 36 36">
  <title>Asset 1</title>
  <g id="Layer_2" data-name="Layer 2">
    <g id="Layer_1-2" data-name="Layer 1">
      <g id="surface6200640">
        <path d="M31.71,0H4.29A4.29,4.29,0,0,0,0,4.29V31.71A4.29,4.29,0,0,0,4.29,36H31.71A4.29,4.29,0,0,0,36,31.71V4.29A4.29,4.29,0,0,0,31.71,0ZM11.14,13.71V30H6V13.71ZM6,9c0-1.2,1-2.11,2.57-2.11A2.31,2.31,0,0,1,11.14,9a2.28,2.28,0,0,1-2.57,2.17A2.32,2.32,0,0,1,6,9ZM30,30H24.86V21.43c0-1.71-.86-3.43-3-3.46h-.07c-2.07,0-2.93,1.76-2.93,3.46V30H13.71V13.71h5.15v2.2a6.4,6.4,0,0,1,5-2.2c3.4,0,6.16,2.34,6.16,7.08Z" fill="#fff"/>
      </g>
    </g>
  </g>
</svg>
