<svg xmlns="http://www.w3.org/2000/svg" viewBox="0 0 123.56 117.15"><defs><style>.cls-1{fill:#fff;}</style></defs><title>Asset 2</title><g id="Layer_2" data-name="Layer 2"><g id="Layer_1-2" data-name="Layer 1"><path class="cls-1" d="M123.53,15.44c.15-5.28-.31-8.82-2.7-12.22-.84-1.19-5-1.67-6.27-1.69-13.79-.24-27.58-.3-41.38-.26-12.41,0-24.86.78-37.22.65C24.47,1.8,16.53-3,6.84,3.12c-3.21,2-5.21,4.15-5.34,7.32-.31,7.19.26,14.41.12,21.61C1.17,54.7.52,77.35.1,100c0,2.48-.19,4.44,0,7.46a11.66,11.66,0,0,0,1.1,6.07c.79,1.36,3.53,2.21,5.42,2.22,9.23,0,18.47-.33,27.7-.45,9.72-.12,19.45-.39,29.15-.09,11.46.37,22.9,1.36,34.35,1.92,3.07.15,4.62-.41,5.8-2.06.29-.74.78-2.59.48-3.09-1.53-2.52-1.87-2.63-5.1-4.68-2.28-1.13-5.13-.8-6.72-.86-6.51-.22-6.51-.22-11.79-.33-14-.29-27.91-.7-41.86-.92-9.08-.14-18.17,0-26.54,0q-.12-18.91-.25-37.9c0-6.34-.12-12.69-.11-19,0-10,0-20.1.21-30.14C12,12.32,13.19,11,19,11c19.88-.06,39.76,0,59.65.13,10.7,0,21.4.17,32.38.26A168.84,168.84,0,0,1,110.54,33c-1,10.15-1.34,20.39-1.48,30.59-.19,13.19-.14,26.4.08,39.59,0,1.2.62,3.47.82,4.94.17.8.55,4.06,6.07,5.7,0,0,2.39.41,3.19-.22,1.25-.88,2.71-1.85,2.79-6.32.16-8.35-.2-16.71-.39-25.07-.11-4.66-.4-9.31-.5-14-.2-8.64-.75-17.3-.36-25.92C121.16,33.3,123.28,24.42,123.53,15.44Z"/><path class="cls-1" d="M88.12,36.94c-1.25.11-3.82,4.71-5.05,4.82l-.92.08c-1.7.86-5.51-5.71-7.57-3.86a40.4,40.4,0,0,0,.55,9.23c0,.33,0,.65,0,1,0,4.65-3,5.74-6.82,5.78-4.1.05-5.27-2.59-5.13-6.15.2-5,.53-9.9.68-14.85,0-1.19-.62-2.38-.61-3.58.06-5.1-1.36-10.86,3.26-12.57,3.13-1.16,5.57,2.28,7.42,5.63,1.59,2.88,2.78,5.54,3.39,6.26a8.52,8.52,0,0,0,3.82,2.84c.71.23,3.33-3,4-4.15a38.37,38.37,0,0,1,6.52-8.06c3.38-3.43,3.91-2.82,4.86-2.25,2,1.17,4.11,5.92,4.12,7.89,0,8.55-.8,17.09-1.16,25.64-.15,3.71-2.21,4.58-5.46,4.79-3.54.22-5.19-1.1-5.79-4.55C87.69,47.74,89,40.08,88.12,36.94Z"/><path class="cls-1" d="M33.74,45.51c4.67,0,7.23.1,11.51.06-.28-6.19-.75-12.31-.75-18.44,0-2.22.53-4.94,1.88-6.53a7.21,7.21,0,0,1,5.87-2.12c1.23.24,2.55,3.16,2.72,5,.66,7.19.78,14.44,1.29,21.65s0,11.38-9.62,8.73c-5.91-1.63-12.68-1.06-18.91-.26-4,.52-4.78-1-4.93-3.94-.44-8.62-.65-17.26-1.07-25.88-.17-3.58,2.8-7.52,6.19-7.35,4.14.2,5.43,3.39,5.42,6.8,0,5.73.23,5.56.69,17C33.93,42,33.83,43.83,33.74,45.51Z"/><path class="cls-1" d="M78.4,79.93c2.72-4,4.67-8.83,7-12,1.93-2.59,4.74-4.27,7.64-2.14s2.59,5.57.62,8.37c-4.13,5.84-7.45,11-8.69,17.37-.81,3.26-1.44,9-4.2,10.71-4.4,2.64-7.18-.22-7.54-6-.71-8-1.1-6.07-2.72-10C68.14,81,64.38,75.6,62.88,69.72c-.35-1.37,3.29-4.75,5.65-5.54,2.68-.89,5.09.74,5.8,4.38C75,71.75,76.87,76.23,78.4,79.93Z"/><path class="cls-1" d="M55.38,87.4c-2.15-5.47-3.78-11-6-17-1.13-3.09-1.76-6.73-5.34-6.34a11.56,11.56,0,0,0-7.26,4.7c-5.19,7.67-9.61,15.86-14.65,23.64-2.36,3.65-1.72,6.55,2.46,7.74,4.4,1.25,7.24-1,9.1-4.5s8.11-4.82,10-3a15.65,15.65,0,0,1,4.23,5.13c1.23,2.61,2,3.5,4.52,3.77,2.94.31,6.14-1.4,6.38-5.7C57.91,92.93,56.45,90.15,55.38,87.4ZM44.93,84.11c.06.67-3.52.22-5.1.44s-3.26,0-3.62-.45c-.91-1.08,3.76-7.84,5.08-8C42,76,44.79,82.49,44.93,84.11Z"/></g></g></svg>