<svg xmlns="http://www.w3.org/2000/svg" viewBox="0 0 1920 280.86"><defs><style>.cls-1{fill:#f48c90;}.cls-2{fill:#fff;}</style></defs><title>Asset 1</title><g id="Layer_2" data-name="Layer 2"><g id="Layer_1-2" data-name="Layer 1"><g id="Layer_1-2-2" data-name="Layer 1-2"><path class="cls-1" d="M1920,94c-212-15-288.27,1.46-375,4-152.08,4.45-156.6,29.1-433,9-154.9-11.26-273.35.1-374,9-152.84,13.51-183.72,56.89-354,63-100.46,3.6-189.4-12.83-276-38C58.35,126.57,51,115,0,90V0H1920Z"/></g><path class="cls-2" d="M0,122.79C40.93,151.66,85,176,131.46,194.18c1.44.59,2.9,1.13,4.36,1.67l4.38,1.64c2.93,1.08,5.83,2.22,8.77,3.24l8.84,3,4.42,1.52c1.48.48,3,.93,4.46,1.4,5.95,1.84,11.88,3.76,17.9,5.35l9,2.51,9.07,2.2c12.07,3.09,24.28,5.45,36.5,7.72l18.43,2.83c6.17.75,12.36,1.36,18.53,2.05,49.53,4.52,99.48,1.85,149-4.23,12.4-1.41,24.77-3.14,37.15-4.77l18.56-2.7,9.27-1.35,9.27-1.44L517.91,212l18.53-3,37-6.07c12.36-2,24.66-4.16,37-6.23,6.15-1.07,12.29-2.24,18.44-3.35s12.3-2.21,18.42-3.46c24.54-4.69,48.95-10,73.35-15.51S769.43,163,794,157.7c6.16-1.27,12.28-2.65,18.48-3.79s12.34-2.43,18.57-3.4,12.41-2.11,18.65-2.92,12.46-1.81,18.72-2.45l9.38-1.07,4.69-.54,4.7-.42c6.26-.54,12.52-1.13,18.79-1.63l18.81-1.21,4.7-.29,4.7-.21,9.42-.39q37.64-1.42,75.31-.48,37.64,1.11,75.11,4.56c12.48,1.22,25,2.54,37.38,4.16s24.83,3.42,37.19,5.43q-18.64-2.27-37.36-3.93c-12.46-1.19-24.94-2.1-37.42-2.89-25-1.51-50-2.4-75-2.42s-50,.62-74.92,2.11l-9.34.6c-3.12.19-6.23.39-9.34.66l-18.67,1.5c-6.21.59-12.4,1.27-18.61,1.9l-4.65.49-4.63.6-9.27,1.21c-24.71,3.32-49.18,7.93-73.54,13.38s-48.64,11.59-73.07,17.31c-48.84,11.48-98.19,21.13-147.7,29.19l-37.11,6-18.57,2.94-18.59,2.83-9.3,1.41-9.32,1.34-18.63,2.64c-12.46,1.6-24.89,3.33-37.4,4.6-6.25.68-12.49,1.41-18.76,1.91s-12.52,1.15-18.8,1.63l-18.85,1.19c-3.13.24-6.29.28-9.44.4l-9.44.32c-6.29.3-12.6.2-18.91.21h-9.45c-3.16-.09-6.31-.24-9.46-.36-6.3-.29-12.61-.4-18.9-1l-9.43-.77c-3.15-.26-6.29-.48-9.42-.92a477.22,477.22,0,0,1-74.29-14l-9.13-2.42-9-2.73c-6.05-1.75-12-3.81-18-5.81-1.49-.5-3-1-4.47-1.51L156,209l-8.86-3.25c-2.94-1.1-5.85-2.31-8.77-3.46s-5.87-2.28-8.74-3.56A583.29,583.29,0,0,1,0,122.79Z"/><path class="cls-2" d="M1245.66,157.64c54.45,3.8,108.94,5.1,163.32,3.5,6.79-.19,13.58-.52,20.38-.78s13.57-.62,20.35-1,13.57-.81,20.34-1.37c3.38-.27,6.77-.5,10.15-.8l10.15-.91c27.06-2.44,54.07-5.74,81.15-9.09,27.1-3.2,54.29-6.2,81.54-8.47q20.43-1.65,40.91-2.82c6.83-.39,13.65-.77,20.48-1.06s13.66-.53,20.49-.73l10.24-.3,10.25-.22c6.83-.16,13.66-.21,20.49-.27,13.67,0,27.33,0,41,.31,27.31.61,54.6,1.73,81.82,3.86-54.59.08-109.08,1.23-163.43,4.41q-10.2.6-20.38,1.31l-10.18.69-10.18.74q-20.34,1.54-40.66,3.52c-27.09,2.53-54.12,5.6-81.18,9-27.08,3.16-54.24,6.44-81.54,8.58s-54.69,3.31-82.05,3.25A1107.71,1107.71,0,0,1,1245.66,157.64Z"/><path class="cls-2" d="M579.77,178.73a554.35,554.35,0,0,1,60-22.55c10.18-3.28,20.51-6.11,30.83-8.92s20.78-5.17,31.24-7.44c21-4.44,42.09-8,63.35-10.41a543.89,543.89,0,0,1,64-3.87c-21.13,3.27-42.17,6.45-63.13,10-10.47,1.87-20.93,3.71-31.35,5.73-5.21,1-10.43,2-15.62,3.09s-10.4,2.14-15.6,3.23c-10.38,2.21-20.74,4.55-31.08,7s-20.64,5-31,7.57C620.91,167.42,600.4,173.11,579.77,178.73Z"/><path class="cls-2" d="M875.57,122.1A654.08,654.08,0,0,1,983,111.83c18-.34,36.09.27,54.11,1.43,9,.6,18,1.48,27,2.45s17.92,2.16,26.84,3.39c35.6,5.3,71,10.68,106.61,14.56s71.4,7.05,107.26,9.76c-36,.62-72-.73-107.85-3.54l-13.45-1.1-13.44-1.32c-9-.94-17.91-1.92-26.85-3-17.86-2.24-35.65-5-53.4-7.42-8.87-1.28-17.73-2.48-26.6-3.54s-17.77-1.89-26.67-2.67-17.82-1.36-26.74-1.83c-4.47-.18-8.93-.42-13.4-.54l-6.7-.24-6.71-.14A1015.85,1015.85,0,0,0,875.57,122.1Z"/><path class="cls-2" d="M1465.78,126.91c19.22-4.59,38.66-8,58.17-11s39.14-5.1,58.81-6.71,39.38-2.61,59.11-3,39.47-.06,59.17,1.36c-19.66,1.93-39.28,3.36-58.88,4.93l-58.75,4.65-58.73,5C1505.09,123.82,1485.5,125.61,1465.78,126.91Z"/><path class="cls-2" d="M1106.7,173.69c39.93,7.77,80,14.36,120.26,19.19s80.69,8,121.19,9.3c20.24.75,40.51.92,60.77.75s40.51-.9,60.77-1.83c40.5-2.07,80.92-5.86,121.29-10.9a969.34,969.34,0,0,1-120.88,17.13c-10.15.88-20.33,1.5-30.51,2l-15.27.69-15.28.46-3.82.11-3.83,0-7.64.06-7.65.06-7.64-.05c-5.1-.07-10.2,0-15.29-.17l-15.29-.38c-5.1-.17-10.19-.46-15.28-.68l-7.64-.37-7.63-.49c-10.17-.63-20.35-1.32-30.5-2.28-20.29-1.93-40.55-4.23-60.7-7.31A973.66,973.66,0,0,1,1106.7,173.69Z"/><path class="cls-2" d="M140.89,169.56a831,831,0,0,0,81.37,20.83,694.1,694.1,0,0,0,82.89,11.37c13.89,1.18,27.83,1.7,41.78,2s27.9,0,41.87-.43c27.92-1.16,55.8-3.83,83.66-7.64a494.67,494.67,0,0,1-83.28,13.87,527,527,0,0,1-84.65.17,521.16,521.16,0,0,1-83.61-13.28A476.78,476.78,0,0,1,140.89,169.56Z"/><path class="cls-2" d="M14.32,175.07a499.66,499.66,0,0,0,73,48.17,417.26,417.26,0,0,0,39.38,18.62c6.76,2.64,13.39,5.59,20.29,7.87l10.26,3.63,10.4,3.19,5.19,1.64c1.73.52,3.49,1,5.24,1.44l10.51,2.85c3.51.88,7.06,1.63,10.6,2.45l5.3,1.21c1.78.39,3.57.7,5.34,1.06l10.69,2.11,10.76,1.7c1.8.27,3.58.62,5.39.81l5.41.68c3.6.44,7.2,1,10.82,1.31a536.36,536.36,0,0,0,87.48,1.69,362.65,362.65,0,0,1-43.8,4.87,374.65,374.65,0,0,1-44.2-.34,382.28,382.28,0,0,1-87.06-15.83l-10.58-3.35-10.43-3.79c-7-2.41-13.77-5.38-20.58-8.26s-13.44-6.16-20-9.46c-3.28-1.7-6.56-3.4-9.8-5.17s-6.45-3.59-9.61-5.51A355.91,355.91,0,0,1,14.32,175.07Z"/><path class="cls-2" d="M374.78,276c17.78-1,35.41-2.13,52.93-4.13s34.9-4.62,52.15-8l13-2.63c4.38-.82,8.76-1.64,13.14-2.4,8.76-1.5,17.52-2.89,26.26-4.25s17.49-2.69,26.17-4.31a228,228,0,0,0,25.86-5.92c-7.88,4.21-16.42,7.11-24.94,9.74s-17.23,4.71-25.9,6.67-17.37,3.74-26,5.53l-13,2.69-13,2.73a357,357,0,0,1-53.22,6.41A307.3,307.3,0,0,1,374.78,276Z"/></g></g></svg>